<?xml version="1.0" encoding="UTF-8" standalone="no"?>
<!-- Created with Inkscape (http://www.inkscape.org/) -->

<svg
   width="155.72043mm"
   height="102mm"
   viewBox="0 0 155.72043 102"
   version="1.1"
   id="svg5"
   inkscape:version="1.1.2 (1:1.1+202202050950+0a00cf5339)"
   sodipodi:docname="drawing.svg"
   xmlns:inkscape="http://www.inkscape.org/namespaces/inkscape"
   xmlns:sodipodi="http://sodipodi.sourceforge.net/DTD/sodipodi-0.dtd"
   xmlns="http://www.w3.org/2000/svg"
   xmlns:svg="http://www.w3.org/2000/svg">
  <sodipodi:namedview
     id="namedview7"
     pagecolor="#ffffff"
     bordercolor="#111111"
     borderopacity="1"
     inkscape:pageshadow="0"
     inkscape:pageopacity="0"
     inkscape:pagecheckerboard="1"
     inkscape:document-units="mm"
     showgrid="false"
     inkscape:zoom="0.96185717"
     inkscape:cx="118.52072"
     inkscape:cy="81.612949"
     inkscape:window-width="1920"
     inkscape:window-height="1016"
     inkscape:window-x="0"
     inkscape:window-y="27"
     inkscape:window-maximized="1"
     inkscape:current-layer="layer1" />
  <defs
     id="defs2" />
  <g
     inkscape:label="Layer 1"
     inkscape:groupmode="layer"
     id="layer1"
     transform="translate(1,1)">
    <path
       style="fill:#0000ff;stroke-width:4.11744;stroke-miterlimit:4;stroke-dasharray:none"
       d="M 7.6258451,287.33095 V 196.91021 H 79.254319 150.88279 v 33.7716 33.7716 H 103.76596 56.649135 v 22.87754 22.87753 h 13.258997 13.259002 l 1.58982,3.10865 c 5.758074,11.25902 21.918586,10.7457 27.561026,-0.87544 1.69119,-3.48316 1.69119,-9.1538 0,-12.63696 -2.76162,-5.68783 -7.84689,-8.91134 -13.999049,-8.87389 -6.280019,0.0382 -11.095326,2.90716 -13.652654,8.13416 l -1.454526,2.97294 H 73.743366 64.27498 v -14.70699 -14.70699 h 43.30391 43.3039 v 52.56386 52.56386 H 79.254319 7.6258451 Z"
       id="path1788"
       transform="matrix(0.26458333,0,0,0.26458333,-1,-1)" />
    <path
       style="fill:#0000ff;stroke-width:4.11744;stroke-miterlimit:4;stroke-dasharray:none"
       d="m 7.6258451,144.94593 v -43.79374 l 38.9570369,-15.583072 38.95704,-15.583083 2.704985,2.138168 c 3.434419,2.714757 5.904376,3.559483 10.361851,3.543768 8.455812,-0.02979 14.927752,-6.622344 14.927752,-15.205913 0,-8.73006 -6.52517,-15.245277 -15.215579,-15.192369 C 89.92,45.320821 83.828262,50.879382 82.960877,59.283531 L 82.647738,62.31754 47.724133,76.290937 C 28.516149,83.976307 11.636223,90.724902 10.213185,91.287815 L 7.6258451,92.311302 V 50.104748 7.8981967 H 98.049799 188.47376 l -0.1394,43.9032563 -0.1394,43.903257 -38.82122,15.52872 -38.82123,15.52871 -1.02834,-1.30733 c -0.56559,-0.71903 -2.33768,-2.03258 -3.93798,-2.91901 -2.54372,-1.409 -3.45764,-1.61168 -7.267259,-1.61168 -3.808014,0 -4.723993,0.20294 -7.262375,1.60902 -6.650658,3.684 -9.567549,10.73706 -7.463769,18.04744 0.753782,2.6193 1.503621,3.78342 4.01363,6.23114 3.496651,3.40989 6.073185,4.43937 11.051048,4.41556 5.505535,-0.0263 10.638045,-3.12326 13.101985,-7.90567 0.59907,-1.16278 1.38244,-3.70283 1.74081,-5.64456 l 0.65158,-3.5304 37.15773,-14.86508 37.15774,-14.86507 v 42.16158 42.16159 H 98.04658 7.6258451 Z"
       id="path1827"
       transform="matrix(0.26458333,0,0,0.26458333,-1,-1)" />
    <path
       style="fill:#0000ff;stroke-width:4.11744;stroke-miterlimit:4;stroke-dasharray:none"
       d="M 196.63786,98.318931 V 7.8981967 h 53.24598 53.24599 l 29.90118,89.7398553 c 16.44565,49.356918 30.014,90.046248 30.15189,90.420738 0.19884,0.54003 -6.66413,0.68088 -33.17632,0.68088 h -33.42702 l -9.7739,-29.35567 -9.7739,-29.35566 1.6341,-1.37501 c 0.89877,-0.75626 2.34923,-2.68215 3.22327,-4.27976 1.34766,-2.46333 1.59218,-3.52557 1.60903,-6.99003 0.0165,-3.39777 -0.23707,-4.6085 -1.50691,-7.19439 -2.66076,-5.41833 -7.42708,-8.27102 -13.72491,-8.21448 -4.55478,0.0409 -7.09099,1.02479 -10.32443,4.00528 -6.36091,5.86328 -6.55355,15.84622 -0.42446,21.99567 2.58813,2.59674 4.35057,3.50014 8.46613,4.33964 l 3.30748,0.67466 9.15612,27.46228 c 5.03587,15.10426 9.15612,27.64795 9.15612,27.87488 0,0.22692 -20.46722,0.41259 -45.48272,0.41259 h -45.48272 z m 60.15349,-23.644352 c 2.90123,-1.212215 6.59211,-4.94889 7.90676,-8.004877 2.55163,-5.931406 1.06678,-13.094489 -3.60751,-17.403097 -3.29604,-3.038186 -5.68581,-3.968546 -10.27419,-3.999839 -6.3356,-0.04321 -10.93425,2.775478 -14.02329,8.595411 -0.93421,1.760112 -1.19215,3.179258 -1.19955,6.599881 -0.008,3.880716 0.1757,4.684017 1.68214,7.339941 2.04842,3.611469 4.65202,5.813171 8.49708,7.185436 3.24485,1.158055 7.80829,1.028481 11.01856,-0.312856 z"
       id="path1866"
       transform="matrix(0.26458333,0,0,0.26458333,-1,-1)" />
    <path
       style="fill:#0000ff;stroke-width:4.11744;stroke-miterlimit:4;stroke-dasharray:none"
       d="m 159.05334,287.33095 v -90.42074 h 52.56386 52.56386 v 33.7716 33.7716 H 242.53163 220.8822 l 21.9206,21.92561 21.92059,21.92561 11.43996,34.31014 c 6.29197,18.87057 11.43995,34.49616 11.43995,34.72352 0,0.22737 -12.19454,0.41185 -27.09898,0.40997 l -27.09899,-0.003 -7.09411,-28.99212 -7.09412,-28.99211 2.18613,-1.66742 c 1.29942,-0.9911 2.85123,-2.96791 3.82589,-4.87372 4.03235,-7.88463 0.69376,-17.56334 -7.29914,-21.16048 -3.54994,-1.59762 -9.26734,-1.56812 -12.63126,0.0652 -3.19117,1.54941 -6.1315,4.48807 -7.66947,7.6651 -1.3993,2.89056 -1.65299,8.38172 -0.53627,11.60762 1.59652,4.61194 6.31208,8.67931 11.25121,9.70467 l 2.92025,0.60625 6.66327,27.06871 c 3.66481,14.88779 6.77544,27.49767 6.91253,28.02195 0.23536,0.90009 -1.59122,0.95323 -32.76883,0.95323 l -33.01807,-1.6e-4 z m 57.99092,-43.80516 c 0.99337,-0.41506 2.85213,-1.69765 4.13057,-2.85021 6.61064,-5.95973 6.61064,-16.75132 0,-22.71104 -1.27844,-1.15257 -3.11414,-2.42553 -4.07933,-2.82881 -7.20503,-3.01045 -15.68485,-0.10007 -19.50017,6.69271 -4.89063,8.70724 -0.36319,19.57312 9.2847,22.28336 2.89145,0.81225 7.44623,0.54965 10.16423,-0.58601 z"
       id="path1905"
       transform="matrix(0.26458333,0,0,0.26458333,-1,-1)" />
    <path
       style="fill:#0000ff;stroke-width:4.11744;stroke-miterlimit:4;stroke-dasharray:none"
       d="m 284.46821,341.38824 -12.1166,-36.36345 v -54.06031 -54.06032 l 46.94176,0.13921 46.94175,0.1392 27.9182,89.05897 c 15.355,48.98244 28.06195,89.61049 28.23766,90.28456 l 0.31947,1.22558 h -29.37834 -29.37835 l -9.78264,-29.34238 -9.78263,-29.34238 2.08353,-2.02213 c 3.1849,-3.09104 4.50047,-6.27839 4.48762,-10.87256 -0.008,-2.85353 -0.32876,-4.53105 -1.2285,-6.42444 -1.40702,-2.96091 -5.19292,-6.66471 -8.09894,-7.92331 -2.68967,-1.1649 -8.99677,-1.14672 -11.72627,0.0338 -7.23745,3.13028 -11.0381,11.01597 -8.88275,18.43015 1.74794,6.01268 5.9713,9.77756 12.32219,10.98449 l 3.27304,0.62202 9.07192,27.24748 c 4.98956,14.98612 9.18461,27.55389 9.32233,27.92837 0.19836,0.53938 -5.84702,0.68088 -29.08873,0.68088 l -29.33912,-10e-6 z m 39.46903,-78.33705 c 3.0658,-1.48921 4.99321,-3.45777 6.83139,-6.97723 0.9033,-1.7295 1.17761,-3.23875 1.19954,-6.59988 0.0254,-3.89507 -0.15093,-4.67564 -1.66138,-7.3535 -5.33103,-9.45133 -17.64412,-10.79068 -24.90976,-2.70953 -7.39542,8.22548 -3.42954,21.87074 7.22928,24.87352 3.34024,0.941 7.84607,0.44968 11.31093,-1.23338 z"
       id="path1944"
       transform="matrix(0.26458333,0,0,0.26458333,-1,-1)" />
    <path
       style="fill:#0000ff;stroke-width:4.11744;stroke-miterlimit:4;stroke-dasharray:none"
       d="m 431.13758,377.07081 c -0.12824,-0.37449 -12.77709,-40.75742 -28.10854,-89.73986 -15.33146,-48.98244 -27.99112,-89.36537 -28.13258,-89.73986 -0.20494,-0.54254 14.24257,-0.68088 71.11182,-0.68088 h 71.36901 l 14.20767,42.62305 c 7.81422,23.44268 14.20767,42.80688 14.20767,43.03156 0,0.22468 -12.32914,0.4085 -27.39809,0.4085 h -27.39809 l -0.65379,-1.80801 c -1.00843,-2.7888 -4.17581,-6.11979 -7.29914,-7.67621 -3.84515,-1.91612 -9.29799,-1.96773 -13.23699,-0.12529 -5.27709,2.46831 -8.9876,8.23461 -8.9876,13.96714 0,6.19637 4.49874,12.49137 10.3053,14.42 7.7167,2.56308 16.31194,-1.27126 19.39605,-8.65257 l 0.81665,-1.95451 h 28.72837 28.72836 l 14.29588,42.89921 c 7.86273,23.59457 14.29587,43.08132 14.29587,43.30391 0,0.22258 -32.85329,0.40469 -73.00732,0.40469 -57.91837,0 -73.05552,-0.14072 -73.24051,-0.68087 z"
       id="path1983"
       transform="matrix(0.26458333,0,0,0.26458333,-1,-1)" />
    <path
       style="fill:#0000ff;stroke-width:4.11744;stroke-miterlimit:4;stroke-dasharray:none"
       d="M 342.11901,98.727453 C 325.61678,49.220737 312.11495,8.5304954 312.11495,8.3046946 c 0,-0.2258009 32.02836,-0.3483569 71.17413,-0.2723466 l 71.17413,0.1382003 14.29974,42.8953787 14.29974,42.895379 h -27.45566 -27.45568 l -0.78282,-1.873567 c -1.22393,-2.929272 -4.94765,-6.58885 -8.07192,-7.932872 -3.91673,-1.684936 -10.07203,-1.378012 -13.55633,0.67596 -5.20769,3.069898 -7.77635,7.596033 -7.74074,13.63963 0.0774,13.140053 15.52342,19.961533 25.43806,11.234323 1.35968,-1.19685 2.98569,-3.35195 3.66788,-4.86143 l 1.22544,-2.7115 h 28.72637 28.72636 l 14.4359,43.30391 14.4359,43.30391 h -71.26618 -71.26619 z"
       id="path2022"
       transform="matrix(0.26458333,0,0,0.26458333,-1,-1)" />
  </g>
</svg>
